<svg width="1255" height="661" xmlns="http://www.w3.org/2000/svg"><g><path d="M-75,-47L-92,49L49,15Z" fill="#fffeff" stroke="#fffeff"/><path d="M-75,-47L49,15L48,-45Z" fill="#fffbfd" stroke="#fffbfd"/><path d="M-75,-47L48,-45L156,-56Z" fill="#fcf8fc" stroke="#fcf8fc"/><path d="M-75,-47L156,-56L453,-75Z" fill="#f2eef6" stroke="#f2eef6"/><path d="M-75,-47L453,-75L508,-79Z" fill="#e5e7f2" stroke="#e5e7f2"/><path d="M48,-45L49,15L156,-56Z" fill="#faf5fa" stroke="#faf5fa"/><path d="M156,-56L49,15L182,59Z" fill="#f6f2f8" stroke="#f6f2f8"/><path d="M156,-56L182,59L246,19Z" fill="#f0edf6" stroke="#f0edf6"/><path d="M156,-56L246,19L247,-39Z" fill="#eeecf5" stroke="#eeecf5"/><path d="M156,-56L247,-39L453,-75Z" fill="#e7e8f2" stroke="#e7e8f2"/><path d="M247,-39L246,19L390,-50Z" fill="#e5e7f2" stroke="#e5e7f2"/><path d="M247,-39L390,-50L453,-75Z" fill="#dbe2ef" stroke="#dbe2ef"/><path d="M390,-50L246,19L357,85Z" fill="#e0e5f1" stroke="#e0e5f1"/><path d="M390,-50L357,85L466,69Z" fill="#d5dfee" stroke="#d5dfee"/><path d="M390,-50L466,69L453,-75Z" fill="#cfddec" stroke="#cfddec"/><path d="M453,-75L466,69L549,31Z" fill="#c3d9ea" stroke="#c3d9ea"/><path d="M453,-75L549,31L508,-79Z" fill="#c0d8ea" stroke="#c0d8ea"/><path d="M508,-79L549,31L610,24Z" fill="#b4d4e7" stroke="#b4d4e7"/><path d="M508,-79L610,24L691,-82Z" fill="#abd0e5" stroke="#abd0e5"/><path d="M508,-79L691,-82L870,-90Z" fill="#9cc8e0" stroke="#9cc8e0"/><path d="M691,-82L610,24L708,-61Z" fill="#a0cae1" stroke="#a0cae1"/><path d="M691,-82L708,-61L870,-90Z" fill="#90c5d4" stroke="#90c5d4"/><path d="M708,-61L610,24L766,54Z" fill="#9bc8e0" stroke="#9bc8e0"/><path d="M708,-61L766,54L870,-90Z" fill="#8bc3cf" stroke="#8bc3cf"/><path d="M870,-90L766,54L869,36Z" fill="#81c0c5" stroke="#81c0c5"/><path d="M870,-90L869,36L933,-70Z" fill="#81bcbb" stroke="#81bcbb"/><path d="M870,-90L933,-70L1022,-86Z" fill="#80b8b2" stroke="#80b8b2"/><path d="M933,-70L869,36L925,79Z" fill="#80bbb8" stroke="#80bbb8"/><path d="M933,-70L925,79L1015,48Z" fill="#80b7af" stroke="#80b7af"/><path d="M933,-70L1015,48L1022,-86Z" fill="#80b4ab" stroke="#80b4ab"/><path d="M1022,-86L1015,48L1133,-8Z" fill="#80aba2" stroke="#80aba2"/><path d="M1022,-86L1133,-8L1227,-72Z" fill="#80a199" stroke="#80a199"/><path d="M1133,-8L1015,48L1171,145Z" fill="#80a49c" stroke="#80a49c"/><path d="M1133,-8L1171,145L1188,19Z" fill="#809c95" stroke="#809c95"/><path d="M1133,-8L1188,19L1227,-72Z" fill="#809a92" stroke="#809a92"/><path d="M1227,-72L1188,19L1236,25Z" fill="#80958e" stroke="#80958e"/><path d="M1227,-72L1236,25L1343,-24Z" fill="#808e88" stroke="#808e88"/><path d="M1343,-24L1236,25L1381,41Z" fill="#808781" stroke="#808781"/><path d="M-92,49L-82,550L-44,279Z" fill="#bee4fb" stroke="#bee4fb"/><path d="M-92,49L-44,279L-36,150Z" fill="#f8faff" stroke="#f8faff"/><path d="M-92,49L-36,150L49,15Z" fill="#fffdfe" stroke="#fffdfe"/><path d="M49,15L-36,150L93,155Z" fill="#fbf7fc" stroke="#fbf7fc"/><path d="M49,15L93,155L124,123Z" fill="#f8f4fa" stroke="#f8f4fa"/><path d="M49,15L124,123L182,59Z" fill="#f7f2f9" stroke="#f7f2f9"/><path d="M182,59L124,123L244,180Z" fill="#efecf6" stroke="#efecf6"/><path d="M182,59L244,180L246,19Z" fill="#edebf5" stroke="#edebf5"/><path d="M246,19L244,180L357,85Z" fill="#e6e7f3" stroke="#e6e7f3"/><path d="M357,85L244,180L351,156Z" fill="#dfe3f1" stroke="#dfe3f1"/><path d="M357,85L351,156L456,173Z" fill="#d4deee" stroke="#d4deee"/><path d="M357,85L456,173L466,69Z" fill="#cfdced" stroke="#cfdced"/><path d="M466,69L456,173L578,162Z" fill="#bdd6ea" stroke="#bdd6ea"/><path d="M466,69L578,162L549,31Z" fill="#b9d6e8" stroke="#b9d6e8"/><path d="M549,31L578,162L610,24Z" fill="#b0d2e6" stroke="#b0d2e6"/><path d="M610,24L578,162L691,121Z" fill="#a6cde4" stroke="#a6cde4"/><path d="M610,24L691,121L766,54Z" fill="#9cc8e0" stroke="#9cc8e0"/><path d="M766,54L691,121L745,191Z" fill="#91c4d9" stroke="#91c4d9"/><path d="M766,54L745,191L869,185Z" fill="#85c0cd" stroke="#85c0cd"/><path d="M766,54L869,185L869,36Z" fill="#80c0c5" stroke="#80c0c5"/><path d="M869,36L869,185L925,79Z" fill="#7fbbbc" stroke="#7fbbbc"/><path d="M925,79L869,185L942,185Z" fill="#7cb7b8" stroke="#7cb7b8"/><path d="M925,79L942,185L1036,177Z" fill="#7db3ae" stroke="#7db3ae"/><path d="M925,79L1036,177L1015,48Z" fill="#7fb3aa" stroke="#7fb3aa"/><path d="M1015,48L1036,177L1171,145Z" fill="#7ea6a0" stroke="#7ea6a0"/><path d="M1188,19L1171,145L1236,25Z" fill="#809790" stroke="#809790"/><path d="M1236,25L1171,145L1263,142Z" fill="#7f938d" stroke="#7f938d"/><path d="M1236,25L1263,142L1354,122Z" fill="#7f8b86" stroke="#7f8b86"/><path d="M1236,25L1354,122L1381,41Z" fill="#808681" stroke="#808681"/><path d="M1381,41L1354,122L1366,258Z" fill="#7d7e80" stroke="#7d7e80"/><path d="M1381,41L1366,258L1391,378Z" fill="#61707f" stroke="#61707f"/><path d="M-36,150L-44,279L35,258Z" fill="#deecfd" stroke="#deecfd"/><path d="M-36,150L35,258L93,155Z" fill="#eceffc" stroke="#eceffc"/><path d="M93,155L35,258L158,274Z" fill="#d8e4f9" stroke="#d8e4f9"/><path d="M93,155L158,274L235,210Z" fill="#d9e1f7" stroke="#d9e1f7"/><path d="M93,155L235,210L124,123Z" fill="#ecebf7" stroke="#ecebf7"/><path d="M124,123L235,210L244,180Z" fill="#e4e6f6" stroke="#e4e6f6"/><path d="M244,180L235,210L320,220Z" fill="#d3ddf3" stroke="#d3ddf3"/><path d="M244,180L320,220L351,156Z" fill="#d3ddf2" stroke="#d3ddf2"/><path d="M351,156L320,220L421,213Z" fill="#c6d7ef" stroke="#c6d7ef"/><path d="M351,156L421,213L456,173Z" fill="#c5d6ee" stroke="#c5d6ee"/><path d="M456,173L421,213L570,234Z" fill="#accdea" stroke="#accdea"/><path d="M456,173L570,234L578,162Z" fill="#a6cce8" stroke="#a6cce8"/><path d="M578,162L570,234L651,291Z" fill="#8bc0e4" stroke="#8bc0e4"/><path d="M578,162L651,291L691,121Z" fill="#92c2e3" stroke="#92c2e3"/><path d="M691,121L651,291L745,191Z" fill="#85bce0" stroke="#85bce0"/><path d="M745,191L651,291L782,255Z" fill="#6cb3d9" stroke="#6cb3d9"/><path d="M745,191L782,255L869,185Z" fill="#6fb5cc" stroke="#6fb5cc"/><path d="M869,185L782,255L886,215Z" fill="#65b1c3" stroke="#65b1c3"/><path d="M869,185L886,215L942,185Z" fill="#6db1ba" stroke="#6db1ba"/><path d="M942,185L886,215L966,223Z" fill="#68acb4" stroke="#68acb4"/><path d="M942,185L966,223L1036,177Z" fill="#6caaac" stroke="#6caaac"/><path d="M1036,177L966,223L1076,293Z" fill="#5e9ea5" stroke="#5e9ea5"/><path d="M1036,177L1076,293L1178,225Z" fill="#5e949d" stroke="#5e949d"/><path d="M1036,177L1178,225L1171,145Z" fill="#719899" stroke="#719899"/><path d="M1171,145L1178,225L1218,239Z" fill="#6a8d92" stroke="#6a8d92"/><path d="M1171,145L1218,239L1263,142Z" fill="#738d8e" stroke="#738d8e"/><path d="M1263,142L1218,239L1366,258Z" fill="#667e86" stroke="#667e86"/><path d="M1263,142L1366,258L1354,122Z" fill="#747e80" stroke="#747e80"/><path d="M-44,279L-82,550L-50,481Z" fill="#92cdd4" stroke="#92cdd4"/><path d="M-44,279L-50,481L-8,373Z" fill="#9ed3ed" stroke="#9ed3ed"/><path d="M-44,279L-8,373L35,258Z" fill="#b9dff8" stroke="#b9dff8"/><path d="M35,258L-8,373L61,357Z" fill="#add7f4" stroke="#add7f4"/><path d="M35,258L61,357L116,352Z" fill="#add5f3" stroke="#add5f3"/><path d="M35,258L116,352L158,274Z" fill="#b6d8f5" stroke="#b6d8f5"/><path d="M158,274L116,352L215,371Z" fill="#a2cdee" stroke="#a2cdee"/><path d="M158,274L215,371L235,210Z" fill="#b2d3f2" stroke="#b2d3f2"/><path d="M235,210L215,371L320,220Z" fill="#b5d3f1" stroke="#b5d3f1"/><path d="M320,220L215,371L374,371Z" fill="#97c6ea" stroke="#97c6ea"/><path d="M320,220L374,371L421,213Z" fill="#a5cbed" stroke="#a5cbed"/><path d="M421,213L374,371L484,386Z" fill="#83bde5" stroke="#83bde5"/><path d="M421,213L484,386L554,343Z" fill="#79bae4" stroke="#79bae4"/><path d="M421,213L554,343L570,234Z" fill="#8ac1e7" stroke="#8ac1e7"/><path d="M570,234L554,343L651,291Z" fill="#6eb7e1" stroke="#6eb7e1"/><path d="M651,291L554,343L689,363Z" fill="#55abdb" stroke="#55abdb"/><path d="M651,291L689,363L729,348Z" fill="#4aa5d7" stroke="#4aa5d7"/><path d="M651,291L729,348L782,255Z" fill="#53aad7" stroke="#53aad7"/><path d="M782,255L729,348L869,351Z" fill="#3da3c6" stroke="#3da3c6"/><path d="M782,255L869,351L886,215Z" fill="#49a8c0" stroke="#49a8c0"/><path d="M886,215L869,351L966,223Z" fill="#4ea5b6" stroke="#4ea5b6"/><path d="M966,223L869,351L941,379Z" fill="#359aae" stroke="#359aae"/><path d="M966,223L941,379L1076,293Z" fill="#3c97a5" stroke="#3c97a5"/><path d="M1076,293L941,379L1010,413Z" fill="#23899c" stroke="#23899c"/><path d="M1076,293L1010,413L1087,354Z" fill="#268497" stroke="#268497"/><path d="M1076,293L1087,354L1149,349Z" fill="#2f8294" stroke="#2f8294"/><path d="M1076,293L1149,349L1178,225Z" fill="#418695" stroke="#418695"/><path d="M1178,225L1149,349L1218,239Z" fill="#4a828f" stroke="#4a828f"/><path d="M1218,239L1149,349L1267,364Z" fill="#357688" stroke="#357688"/><path d="M1218,239L1267,364L1366,258Z" fill="#427282" stroke="#427282"/><path d="M1366,258L1267,364L1391,378Z" fill="#2e6177" stroke="#2e6177"/><path d="M-8,373L-50,481L49,452Z" fill="#92c9d2" stroke="#92c9d2"/><path d="M-8,373L49,452L61,357Z" fill="#98cce3" stroke="#98cce3"/><path d="M61,357L49,452L137,416Z" fill="#92c7db" stroke="#92c7db"/><path d="M61,357L137,416L116,352Z" fill="#97c9e9" stroke="#97c9e9"/><path d="M116,352L137,416L215,371Z" fill="#92c5e5" stroke="#92c5e5"/><path d="M215,371L137,416L206,462Z" fill="#88bed4" stroke="#88bed4"/><path d="M215,371L206,462L374,371Z" fill="#83bcd7" stroke="#83bcd7"/><path d="M374,371L206,462L393,448Z" fill="#75b4c9" stroke="#75b4c9"/><path d="M374,371L393,448L452,415Z" fill="#6db0cd" stroke="#6db0cd"/><path d="M374,371L452,415L484,386Z" fill="#6bb0d5" stroke="#6bb0d5"/><path d="M484,386L452,415L583,489Z" fill="#53a7c0" stroke="#53a7c0"/><path d="M484,386L583,489L554,343Z" fill="#50a7ca" stroke="#50a7ca"/><path d="M554,343L583,489L689,363Z" fill="#45a2ca" stroke="#45a2ca"/><path d="M689,363L583,489L679,474Z" fill="#3599b4" stroke="#3599b4"/><path d="M689,363L679,474L745,418Z" fill="#3097bb" stroke="#3097bb"/><path d="M689,363L745,418L729,348Z" fill="#359cca" stroke="#359cca"/><path d="M729,348L745,418L869,351Z" fill="#2b99c0" stroke="#2b99c0"/><path d="M869,351L745,418L848,450Z" fill="#1d93a9" stroke="#1d93a9"/><path d="M869,351L848,450L909,420Z" fill="#198f9f" stroke="#198f9f"/><path d="M869,351L909,420L941,379Z" fill="#1e90a5" stroke="#1e90a5"/><path d="M941,379L909,420L1010,413Z" fill="#198993" stroke="#198993"/><path d="M1087,354L1010,413L1193,477Z" fill="#17767b" stroke="#17767b"/><path d="M1087,354L1193,477L1149,349Z" fill="#1c737f" stroke="#1c737f"/><path d="M1149,349L1193,477L1276,409Z" fill="#18676f" stroke="#18676f"/><path d="M1149,349L1276,409L1267,364Z" fill="#1f697c" stroke="#1f697c"/><path d="M1267,364L1276,409L1391,378Z" fill="#1e5d6e" stroke="#1e5d6e"/><path d="M1391,378L1276,409L1308,437Z" fill="#195861" stroke="#195861"/><path d="M1391,378L1308,437L1320,589Z" fill="#124d47" stroke="#124d47"/><path d="M1391,378L1320,589L1374,674Z" fill="#12382c" stroke="#12382c"/><path d="M1391,378L1374,674L1376,735Z" fill="#12271e" stroke="#12271e"/><path d="M-50,481L-82,550L21,562Z" fill="#91baaf" stroke="#91baaf"/><path d="M-50,481L21,562L49,452Z" fill="#91beb8" stroke="#91beb8"/><path d="M49,452L21,562L145,609Z" fill="#8caea8" stroke="#8caea8"/><path d="M49,452L145,609L168,594Z" fill="#89a7a3" stroke="#89a7a3"/><path d="M49,452L168,594L137,416Z" fill="#89b8b9" stroke="#89b8b9"/><path d="M137,416L168,594L206,462Z" fill="#85b4b6" stroke="#85b4b6"/><path d="M206,462L168,594L253,549Z" fill="#81a7a5" stroke="#81a7a5"/><path d="M206,462L253,549L393,448Z" fill="#79adb3" stroke="#79adb3"/><path d="M393,448L253,549L383,528Z" fill="#70a6a8" stroke="#70a6a8"/><path d="M393,448L383,528L452,415Z" fill="#66a8b7" stroke="#66a8b7"/><path d="M452,415L383,528L540,527Z" fill="#5ca0ab" stroke="#5ca0ab"/><path d="M452,415L540,527L583,489Z" fill="#4d9ead" stroke="#4d9ead"/><path d="M583,489L540,527L643,532Z" fill="#40929b" stroke="#40929b"/><path d="M583,489L643,532L679,474Z" fill="#38919f" stroke="#38919f"/><path d="M679,474L643,532L710,553Z" fill="#308995" stroke="#308995"/><path d="M679,474L710,553L745,418Z" fill="#2a8da0" stroke="#2a8da0"/><path d="M745,418L710,553L848,450Z" fill="#208c98" stroke="#208c98"/><path d="M848,450L710,553L859,559Z" fill="#19817e" stroke="#19817e"/><path d="M848,450L859,559L950,536Z" fill="#137d71" stroke="#137d71"/><path d="M848,450L950,536L909,420Z" fill="#138481" stroke="#138481"/><path d="M909,420L950,536L1010,413Z" fill="#12827c" stroke="#12827c"/><path d="M1010,413L950,536L1016,560Z" fill="#127764" stroke="#127764"/><path d="M1010,413L1016,560L1193,477Z" fill="#126f62" stroke="#126f62"/><path d="M1193,477L1016,560L1177,590Z" fill="#125947" stroke="#125947"/><path d="M1193,477L1177,590L1227,536Z" fill="#125240" stroke="#125240"/><path d="M1193,477L1227,536L1308,437Z" fill="#12574c" stroke="#12574c"/><path d="M1193,477L1308,437L1276,409Z" fill="#125d5b" stroke="#125d5b"/><path d="M1308,437L1227,536L1320,589Z" fill="#124b39" stroke="#124b39"/><path d="M-82,550L-35,776L-13,613Z" fill="#91968e" stroke="#91968e"/><path d="M-82,550L-13,613L21,562Z" fill="#91aba2" stroke="#91aba2"/><path d="M21,562L-13,613L31,659Z" fill="#909d96" stroke="#909d96"/><path d="M21,562L31,659L145,609Z" fill="#8d9995" stroke="#8d9995"/><path d="M168,594L145,609L218,684Z" fill="#848b8b" stroke="#848b8b"/><path d="M168,594L218,684L253,549Z" fill="#809090" stroke="#809090"/><path d="M253,549L218,684L342,667Z" fill="#7b8487" stroke="#7b8487"/><path d="M253,549L342,667L383,528Z" fill="#739193" stroke="#739193"/><path d="M383,528L342,667L418,671Z" fill="#6a8085" stroke="#6a8085"/><path d="M383,528L418,671L463,594Z" fill="#64858b" stroke="#64858b"/><path d="M383,528L463,594L540,527Z" fill="#5b9197" stroke="#5b9197"/><path d="M463,594L418,671L550,647Z" fill="#57757d" stroke="#57757d"/><path d="M463,594L550,647L540,527Z" fill="#4e8189" stroke="#4e8189"/><path d="M540,527L550,647L616,610Z" fill="#437b85" stroke="#437b85"/><path d="M540,527L616,610L643,532Z" fill="#3e848e" stroke="#3e848e"/><path d="M643,532L616,610L710,553Z" fill="#347c89" stroke="#347c89"/><path d="M710,553L616,610L721,609Z" fill="#2f7280" stroke="#2f7280"/><path d="M710,553L721,609L859,559Z" fill="#207377" stroke="#207377"/><path d="M859,559L721,609L863,659Z" fill="#176564" stroke="#176564"/><path d="M859,559L863,659L950,536Z" fill="#13675d" stroke="#13675d"/><path d="M950,536L863,659L935,685Z" fill="#12584c" stroke="#12584c"/><path d="M950,536L935,685L1016,560Z" fill="#125e4d" stroke="#125e4d"/><path d="M1016,560L935,685L1061,649Z" fill="#124e3d" stroke="#124e3d"/><path d="M1016,560L1061,649L1107,656Z" fill="#124a38" stroke="#124a38"/><path d="M1016,560L1107,656L1177,590Z" fill="#124a39" stroke="#124a39"/><path d="M1177,590L1107,656L1256,711Z" fill="#122f21" stroke="#122f21"/><path d="M1177,590L1256,711L1287,672Z" fill="#122618" stroke="#122618"/><path d="M1177,590L1287,672L1320,589Z" fill="#123020" stroke="#123020"/><path d="M1177,590L1320,589L1227,536Z" fill="#124130" stroke="#124130"/><path d="M1320,589L1287,672L1374,674Z" fill="#121e10" stroke="#121e10"/><path d="M-13,613L-35,776L31,659Z" fill="#918883" stroke="#918883"/><path d="M31,659L-35,776L47,755Z" fill="#907b7d" stroke="#907b7d"/><path d="M31,659L47,755L167,738Z" fill="#8c777b" stroke="#8c777b"/><path d="M31,659L167,738L145,609Z" fill="#898382" stroke="#898382"/><path d="M145,609L167,738L218,684Z" fill="#847c7d" stroke="#847c7d"/><path d="M218,684L167,738L231,730Z" fill="#816e76" stroke="#816e76"/><path d="M218,684L231,730L307,733Z" fill="#7c6c74" stroke="#7c6c74"/><path d="M218,684L307,733L342,667Z" fill="#787074" stroke="#787074"/><path d="M342,667L307,733L418,671Z" fill="#6e6d73" stroke="#6e6d73"/><path d="M418,671L307,733L464,766Z" fill="#68606f" stroke="#68606f"/><path d="M418,671L464,766L550,647Z" fill="#57636d" stroke="#57636d"/><path d="M550,647L464,766L594,767Z" fill="#4a5669" stroke="#4a5669"/><path d="M550,647L594,767L631,710Z" fill="#3f5666" stroke="#3f5666"/><path d="M550,647L631,710L616,610Z" fill="#3e6572" stroke="#3e6572"/><path d="M616,610L631,710L721,609Z" fill="#346472" stroke="#346472"/><path d="M721,609L631,710L714,727Z" fill="#2e5566" stroke="#2e5566"/><path d="M721,609L714,727L863,659Z" fill="#20565d" stroke="#20565d"/><path d="M863,659L714,727L810,788Z" fill="#1a434d" stroke="#1a434d"/><path d="M863,659L810,788L935,685Z" fill="#134140" stroke="#134140"/><path d="M935,685L810,788L994,780Z" fill="#123b38" stroke="#123b38"/><path d="M935,685L994,780L1067,725Z" fill="#12332a" stroke="#12332a"/><path d="M935,685L1067,725L1061,649Z" fill="#123b2b" stroke="#123b2b"/><path d="M1061,649L1067,725L1107,656Z" fill="#123626" stroke="#123626"/><path d="M1107,656L1067,725L1111,758Z" fill="#12281e" stroke="#12281e"/><path d="M1107,656L1111,758L1256,711Z" fill="#122116" stroke="#122116"/><path d="M1287,672L1256,711L1376,735Z" fill="#120e03" stroke="#120e03"/><path d="M1287,672L1376,735L1374,674Z" fill="#120c02" stroke="#120c02"/><path d="M-35,776L810,788L464,766Z" fill="#665f6e" stroke="#665f6e"/><path d="M-35,776L464,766L47,755Z" fill="#867078" stroke="#867078"/><path d="M47,755L464,766L167,738Z" fill="#7f6c75" stroke="#7f6c75"/><path d="M167,738L464,766L307,733Z" fill="#756672" stroke="#756672"/><path d="M167,738L307,733L231,730Z" fill="#7e6b75" stroke="#7e6b75"/><path d="M464,766L810,788L594,767Z" fill="#3a4f64" stroke="#3a4f64"/><path d="M594,767L810,788L714,727Z" fill="#2b485f" stroke="#2b485f"/><path d="M594,767L714,727L631,710Z" fill="#364d63" stroke="#364d63"/><path d="M994,780L1376,735L1111,758Z" fill="#121d16" stroke="#121d16"/><path d="M994,780L1111,758L1067,725Z" fill="#122b23" stroke="#122b23"/><path d="M1111,758L1376,735L1256,711Z" fill="#12110b" stroke="#12110b"/></g><filter id="noise"><feTurbulence type="fractalNoise" in="fillPaint" fill="#F00" baseFrequency="0.7" numOctaves="3" stitchTiles="stitch"/><feComponentTransfer><feFuncR type="linear" slope="2" intercept="-.5"/><feFuncG type="linear" slope="2" intercept="-.5"/><feFuncB type="linear" slope="2" intercept="-.5"/></feComponentTransfer><feColorMatrix type="matrix" values="0.3333 0.3333 0.3333 0 0 
 0.3333 0.3333 0.3333 0 0 
 0.3333 0.3333 0.3333 0 0 
 0 0 0 1 0"/></filter><rect opacity="0.20000000000000007" width="100%" height="100%" filter="url(#noise)"/></svg>