<svg width="1255" height="661" xmlns="http://www.w3.org/2000/svg"><g><path d="M-20,-19L-63,95L-51,85Z" fill="#f6fbff" stroke="#f6fbff"/><path d="M-20,-19L-51,85L42,26Z" fill="#f5faff" stroke="#f5faff"/><path d="M-20,-19L42,26L70,-25Z" fill="#f5f8fe" stroke="#f5f8fe"/><path d="M-20,-19L70,-25L123,-58Z" fill="#f3f7fd" stroke="#f3f7fd"/><path d="M70,-25L42,26L146,30Z" fill="#eff5fc" stroke="#eff5fc"/><path d="M70,-25L146,30L123,-58Z" fill="#eef4fb" stroke="#eef4fb"/><path d="M123,-58L146,30L205,-33Z" fill="#ebf2f9" stroke="#ebf2f9"/><path d="M123,-58L205,-33L387,-69Z" fill="#e4eff6" stroke="#e4eff6"/><path d="M123,-58L387,-69L751,-85Z" fill="#d0e4f0" stroke="#d0e4f0"/><path d="M205,-33L146,30L245,83Z" fill="#e5f0f8" stroke="#e5f0f8"/><path d="M205,-33L245,83L288,-29Z" fill="#e3eef6" stroke="#e3eef6"/><path d="M205,-33L288,-29L387,-69Z" fill="#e0ecf4" stroke="#e0ecf4"/><path d="M288,-29L245,83L343,84Z" fill="#dcecf4" stroke="#dcecf4"/><path d="M288,-29L343,84L387,-69Z" fill="#dbeaf3" stroke="#dbeaf3"/><path d="M387,-69L343,84L427,73Z" fill="#d2e7f1" stroke="#d2e7f1"/><path d="M387,-69L427,73L475,31Z" fill="#cee4f0" stroke="#cee4f0"/><path d="M387,-69L475,31L524,-54Z" fill="#cbe2ef" stroke="#cbe2ef"/><path d="M387,-69L524,-54L577,-65Z" fill="#c6dfee" stroke="#c6dfee"/><path d="M387,-69L577,-65L751,-85Z" fill="#bddaec" stroke="#bddaec"/><path d="M524,-54L475,31L565,26Z" fill="#c3deee" stroke="#c3deee"/><path d="M524,-54L565,26L577,-65Z" fill="#bfdbed" stroke="#bfdbed"/><path d="M577,-65L565,26L657,-37Z" fill="#b9d9ec" stroke="#b9d9ec"/><path d="M577,-65L657,-37L751,-85Z" fill="#b1d3e9" stroke="#b1d3e9"/><path d="M657,-37L565,26L684,41Z" fill="#b3d6ea" stroke="#b3d6ea"/><path d="M657,-37L684,41L751,-85Z" fill="#add0e7" stroke="#add0e7"/><path d="M751,-85L684,41L772,63Z" fill="#a8cce5" stroke="#a8cce5"/><path d="M751,-85L772,63L821,-15Z" fill="#a3c8e3" stroke="#a3c8e3"/><path d="M751,-85L821,-15L916,-45Z" fill="#9dc3e0" stroke="#9dc3e0"/><path d="M751,-85L916,-45L1100,-64Z" fill="#92badb" stroke="#92badb"/><path d="M751,-85L1100,-64L1329,-67Z" fill="#82add4" stroke="#82add4"/><path d="M821,-15L772,63L861,43Z" fill="#9cc4e1" stroke="#9cc4e1"/><path d="M821,-15L861,43L916,-45Z" fill="#99c0de" stroke="#99c0de"/><path d="M916,-45L861,43L973,31Z" fill="#92bbdc" stroke="#92bbdc"/><path d="M916,-45L973,31L1042,-24Z" fill="#8cb5d8" stroke="#8cb5d8"/><path d="M916,-45L1042,-24L1100,-64Z" fill="#87b1d6" stroke="#87b1d6"/><path d="M1042,-24L973,31L1062,71Z" fill="#84b0d6" stroke="#84b0d6"/><path d="M1042,-24L1062,71L1110,71Z" fill="#7dacd3" stroke="#7dacd3"/><path d="M1042,-24L1110,71L1100,-64Z" fill="#80aad3" stroke="#80aad3"/><path d="M1100,-64L1110,71L1194,-23Z" fill="#80a5d0" stroke="#80a5d0"/><path d="M1100,-64L1194,-23L1329,-67Z" fill="#809ecc" stroke="#809ecc"/><path d="M1194,-23L1110,71L1183,61Z" fill="#7ca3cf" stroke="#7ca3cf"/><path d="M1194,-23L1183,61L1328,74Z" fill="#7c9ccb" stroke="#7c9ccb"/><path d="M1194,-23L1328,74L1329,-67Z" fill="#8097c8" stroke="#8097c8"/><path d="M1329,-67L1328,74L1338,235Z" fill="#7892c6" stroke="#7892c6"/><path d="M-51,85L-63,95L25,105Z" fill="#f1fbff" stroke="#f1fbff"/><path d="M-51,85L25,105L42,26Z" fill="#f0f9ff" stroke="#f0f9ff"/><path d="M42,26L25,105L146,30Z" fill="#edf6fd" stroke="#edf6fd"/><path d="M146,30L25,105L163,162Z" fill="#e5f4fb" stroke="#e5f4fb"/><path d="M146,30L163,162L200,102Z" fill="#e1f2f9" stroke="#e1f2f9"/><path d="M146,30L200,102L245,83Z" fill="#e1f0f8" stroke="#e1f0f8"/><path d="M245,83L200,102L284,235Z" fill="#d7eef6" stroke="#d7eef6"/><path d="M245,83L284,235L351,168Z" fill="#d1ecf4" stroke="#d1ecf4"/><path d="M245,83L351,168L343,84Z" fill="#d4ebf3" stroke="#d4ebf3"/><path d="M343,84L351,168L392,96Z" fill="#cde8f2" stroke="#cde8f2"/><path d="M343,84L392,96L427,73Z" fill="#cde6f1" stroke="#cde6f1"/><path d="M427,73L392,96L473,160Z" fill="#c5e4f0" stroke="#c5e4f0"/><path d="M427,73L473,160L547,110Z" fill="#bee0ef" stroke="#bee0ef"/><path d="M427,73L547,110L475,31Z" fill="#c2e0ef" stroke="#c2e0ef"/><path d="M475,31L547,110L565,26Z" fill="#bddded" stroke="#bddded"/><path d="M565,26L547,110L676,109Z" fill="#b2d9ec" stroke="#b2d9ec"/><path d="M565,26L676,109L684,41Z" fill="#aed5ea" stroke="#aed5ea"/><path d="M684,41L676,109L772,63Z" fill="#a5cfe6" stroke="#a5cfe6"/><path d="M772,63L676,109L804,151Z" fill="#9dcbe4" stroke="#9dcbe4"/><path d="M772,63L804,151L861,43Z" fill="#97c5e1" stroke="#97c5e1"/><path d="M861,43L804,151L886,111Z" fill="#92c1df" stroke="#92c1df"/><path d="M861,43L886,111L973,31Z" fill="#8fbcdc" stroke="#8fbcdc"/><path d="M973,31L886,111L981,125Z" fill="#88b8da" stroke="#88b8da"/><path d="M973,31L981,125L1062,71Z" fill="#82b2d7" stroke="#82b2d7"/><path d="M1062,71L981,125L1033,136Z" fill="#7cb0d6" stroke="#7cb0d6"/><path d="M1062,71L1033,136L1092,151Z" fill="#77acd4" stroke="#77acd4"/><path d="M1062,71L1092,151L1110,71Z" fill="#77aad3" stroke="#77aad3"/><path d="M1110,71L1092,151L1208,109Z" fill="#76a5d0" stroke="#76a5d0"/><path d="M1110,71L1208,109L1183,61Z" fill="#78a2ce" stroke="#78a2ce"/><path d="M1183,61L1208,109L1328,74Z" fill="#789bcb" stroke="#789bcb"/><path d="M1328,74L1208,109L1288,137Z" fill="#7698c9" stroke="#7698c9"/><path d="M1328,74L1288,137L1338,235Z" fill="#7294c6" stroke="#7294c6"/><path d="M-63,95L-74,380L-37,221Z" fill="#d9f2ff" stroke="#d9f2ff"/><path d="M-63,95L-37,221L25,105Z" fill="#edfaff" stroke="#edfaff"/><path d="M25,105L-37,221L62,228Z" fill="#e1f6ff" stroke="#e1f6ff"/><path d="M25,105L62,228L163,162Z" fill="#e2f6fc" stroke="#e2f6fc"/><path d="M163,162L62,228L159,187Z" fill="#d6f0fa" stroke="#d6f0fa"/><path d="M163,162L159,187L235,250Z" fill="#cfecf8" stroke="#cfecf8"/><path d="M163,162L235,250L284,235Z" fill="#c7e8f7" stroke="#c7e8f7"/><path d="M163,162L284,235L200,102Z" fill="#d7f0f7" stroke="#d7f0f7"/><path d="M351,168L284,235L421,192Z" fill="#c0e4f2" stroke="#c0e4f2"/><path d="M351,168L421,192L392,96Z" fill="#c7e6f1" stroke="#c7e6f1"/><path d="M392,96L421,192L473,160Z" fill="#c2e4f0" stroke="#c2e4f0"/><path d="M473,160L421,192L484,227Z" fill="#b4deef" stroke="#b4deef"/><path d="M473,160L484,227L580,234Z" fill="#a9d8ee" stroke="#a9d8ee"/><path d="M473,160L580,234L547,110Z" fill="#b2dced" stroke="#b2dced"/><path d="M547,110L580,234L676,109Z" fill="#abd8eb" stroke="#abd8eb"/><path d="M676,109L580,234L686,236Z" fill="#9cd1ea" stroke="#9cd1ea"/><path d="M676,109L686,236L731,215Z" fill="#97cde7" stroke="#97cde7"/><path d="M676,109L731,215L804,151Z" fill="#9acce5" stroke="#9acce5"/><path d="M804,151L731,215L844,230Z" fill="#89c2e2" stroke="#89c2e2"/><path d="M804,151L844,230L922,187Z" fill="#84bddf" stroke="#84bddf"/><path d="M804,151L922,187L886,111Z" fill="#8bbfde" stroke="#8bbfde"/><path d="M886,111L922,187L981,125Z" fill="#85b9db" stroke="#85b9db"/><path d="M981,125L922,187L1034,242Z" fill="#77b2d8" stroke="#77b2d8"/><path d="M981,125L1034,242L1033,136Z" fill="#78b0d6" stroke="#78b0d6"/><path d="M1033,136L1034,242L1092,151Z" fill="#71acd4" stroke="#71acd4"/><path d="M1092,151L1034,242L1155,191Z" fill="#68a5d2" stroke="#68a5d2"/><path d="M1092,151L1155,191L1208,109Z" fill="#72a4cf" stroke="#72a4cf"/><path d="M1208,109L1155,191L1214,243Z" fill="#6c9dcd" stroke="#6c9dcd"/><path d="M1208,109L1214,243L1288,137Z" fill="#719ccb" stroke="#719ccb"/><path d="M1288,137L1214,243L1338,235Z" fill="#6591c8" stroke="#6591c8"/><path d="M-37,221L-74,380L-36,337Z" fill="#c1e6ff" stroke="#c1e6ff"/><path d="M-37,221L-36,337L75,301Z" fill="#c4e8ff" stroke="#c4e8ff"/><path d="M-37,221L75,301L62,228Z" fill="#cdebfe" stroke="#cdebfe"/><path d="M62,228L75,301L159,187Z" fill="#caeafb" stroke="#caeafb"/><path d="M159,187L75,301L145,350Z" fill="#bce3fa" stroke="#bce3fa"/><path d="M159,187L145,350L235,250Z" fill="#bde3f8" stroke="#bde3f8"/><path d="M235,250L145,350L207,333Z" fill="#aedcf8" stroke="#aedcf8"/><path d="M235,250L207,333L310,331Z" fill="#abdaf6" stroke="#abdaf6"/><path d="M235,250L310,331L284,235Z" fill="#b3ddf5" stroke="#b3ddf5"/><path d="M284,235L310,331L408,334Z" fill="#a5d6f3" stroke="#a5d6f3"/><path d="M284,235L408,334L421,192Z" fill="#aedbf2" stroke="#aedbf2"/><path d="M421,192L408,334L484,227Z" fill="#a6d7f0" stroke="#a6d7f0"/><path d="M484,227L408,334L533,331Z" fill="#93ceef" stroke="#93ceef"/><path d="M484,227L533,331L580,234Z" fill="#95ceed" stroke="#95ceed"/><path d="M580,234L533,331L625,277Z" fill="#8bc9ec" stroke="#8bc9ec"/><path d="M580,234L625,277L686,236Z" fill="#8dcaeb" stroke="#8dcaeb"/><path d="M686,236L625,277L693,305Z" fill="#81c3e9" stroke="#81c3e9"/><path d="M686,236L693,305L731,215Z" fill="#84c3e7" stroke="#84c3e7"/><path d="M731,215L693,305L787,310Z" fill="#78bce5" stroke="#78bce5"/><path d="M731,215L787,310L844,230Z" fill="#7abbe2" stroke="#7abbe2"/><path d="M844,230L787,310L848,284Z" fill="#6eb3e0" stroke="#6eb3e0"/><path d="M844,230L848,284L922,187Z" fill="#75b5de" stroke="#75b5de"/><path d="M922,187L848,284L966,306Z" fill="#69aedc" stroke="#69aedc"/><path d="M922,187L966,306L1034,242Z" fill="#66aad9" stroke="#66aad9"/><path d="M1034,242L966,306L1019,330Z" fill="#549fd7" stroke="#549fd7"/><path d="M1034,242L1019,330L1127,340Z" fill="#4a99d4" stroke="#4a99d4"/><path d="M1034,242L1127,340L1155,191Z" fill="#559bd2" stroke="#559bd2"/><path d="M1155,191L1127,340L1214,243Z" fill="#5595ce" stroke="#5595ce"/><path d="M1214,243L1127,340L1217,280Z" fill="#4c8ecd" stroke="#4c8ecd"/><path d="M1214,243L1217,280L1338,235Z" fill="#578dca" stroke="#578dca"/><path d="M1338,235L1217,280L1326,347Z" fill="#4d84c8" stroke="#4d84c8"/><path d="M1338,235L1326,347L1335,428Z" fill="#3e79c5" stroke="#3e79c5"/><path d="M-36,337L-74,380L17,384Z" fill="#b0dbfb" stroke="#b0dbfb"/><path d="M-36,337L17,384L75,301Z" fill="#b3defe" stroke="#b3defe"/><path d="M75,301L17,384L145,350Z" fill="#addbfb" stroke="#addbfb"/><path d="M145,350L17,384L137,436Z" fill="#9fd0f4" stroke="#9fd0f4"/><path d="M145,350L137,436L204,416Z" fill="#98cbf1" stroke="#98cbf1"/><path d="M145,350L204,416L207,333Z" fill="#9fd1f4" stroke="#9fd1f4"/><path d="M207,333L204,416L310,331Z" fill="#9cd0f3" stroke="#9cd0f3"/><path d="M310,331L204,416L321,416Z" fill="#92c8ee" stroke="#92c8ee"/><path d="M310,331L321,416L408,334Z" fill="#92cbef" stroke="#92cbef"/><path d="M408,334L321,416L445,409Z" fill="#85c2eb" stroke="#85c2eb"/><path d="M408,334L445,409L470,392Z" fill="#81c0ea" stroke="#81c0ea"/><path d="M408,334L470,392L533,331Z" fill="#84c4ed" stroke="#84c4ed"/><path d="M533,331L470,392L516,463Z" fill="#74b9e7" stroke="#74b9e7"/><path d="M533,331L516,463L604,430Z" fill="#6bb3e4" stroke="#6bb3e4"/><path d="M533,331L604,430L675,370Z" fill="#6cb6e6" stroke="#6cb6e6"/><path d="M533,331L675,370L625,277Z" fill="#79c0eb" stroke="#79c0eb"/><path d="M625,277L675,370L693,305Z" fill="#75bde9" stroke="#75bde9"/><path d="M693,305L675,370L730,400Z" fill="#65b2e3" stroke="#65b2e3"/><path d="M693,305L730,400L787,310Z" fill="#66b3e4" stroke="#66b3e4"/><path d="M787,310L730,400L821,443Z" fill="#55a4dc" stroke="#55a4dc"/><path d="M787,310L821,443L848,284Z" fill="#5ba9df" stroke="#5ba9df"/><path d="M848,284L821,443L975,426Z" fill="#499bd7" stroke="#499bd7"/><path d="M848,284L975,426L966,306Z" fill="#509fda" stroke="#509fda"/><path d="M966,306L975,426L1019,330Z" fill="#4497d5" stroke="#4497d5"/><path d="M1019,330L975,426L1056,368Z" fill="#3b8fd1" stroke="#3b8fd1"/><path d="M1019,330L1056,368L1127,340Z" fill="#3d90d2" stroke="#3d90d2"/><path d="M1127,340L1056,368L1107,389Z" fill="#368ace" stroke="#368ace"/><path d="M1127,340L1107,389L1232,425Z" fill="#317fc8" stroke="#317fc8"/><path d="M1127,340L1232,425L1217,280Z" fill="#3b84cb" stroke="#3b84cb"/><path d="M1217,280L1232,425L1326,347Z" fill="#3a7dc7" stroke="#3a7dc7"/><path d="M1326,347L1232,425L1335,428Z" fill="#2d6fc0" stroke="#2d6fc0"/><path d="M-74,380L-36,726L-32,579Z" fill="#7eb1e4" stroke="#7eb1e4"/><path d="M-74,380L-32,579L-10,510Z" fill="#90c0ec" stroke="#90c0ec"/><path d="M-74,380L-10,510L12,482Z" fill="#97c7f0" stroke="#97c7f0"/><path d="M-74,380L12,482L17,384Z" fill="#a2cff5" stroke="#a2cff5"/><path d="M17,384L12,482L137,436Z" fill="#97c8f1" stroke="#97c8f1"/><path d="M137,436L12,482L112,490Z" fill="#8bbfeb" stroke="#8bbfeb"/><path d="M137,436L112,490L237,505Z" fill="#83bae8" stroke="#83bae8"/><path d="M137,436L237,505L204,416Z" fill="#87bee9" stroke="#87bee9"/><path d="M204,416L237,505L321,416Z" fill="#85bde8" stroke="#85bde8"/><path d="M321,416L237,505L322,489Z" fill="#7bb6e4" stroke="#7bb6e4"/><path d="M321,416L322,489L441,480Z" fill="#75b4e2" stroke="#75b4e2"/><path d="M321,416L441,480L445,409Z" fill="#77b6e4" stroke="#77b6e4"/><path d="M445,409L441,480L516,463Z" fill="#6aafe1" stroke="#6aafe1"/><path d="M445,409L516,463L470,392Z" fill="#71b5e4" stroke="#71b5e4"/><path d="M604,430L516,463L582,516Z" fill="#58a4dc" stroke="#58a4dc"/><path d="M604,430L582,516L711,458Z" fill="#50a0da" stroke="#50a0da"/><path d="M604,430L711,458L675,370Z" fill="#5aa8de" stroke="#5aa8de"/><path d="M675,370L711,458L730,400Z" fill="#57a6dd" stroke="#57a6dd"/><path d="M730,400L711,458L738,467Z" fill="#4c9dd9" stroke="#4c9dd9"/><path d="M730,400L738,467L821,443Z" fill="#499bd7" stroke="#499bd7"/><path d="M821,443L738,467L846,525Z" fill="#398ed0" stroke="#398ed0"/><path d="M821,443L846,525L965,509Z" fill="#2d83cb" stroke="#2d83cb"/><path d="M821,443L965,509L975,426Z" fill="#3086cc" stroke="#3086cc"/><path d="M975,426L965,509L1040,470Z" fill="#267dc7" stroke="#267dc7"/><path d="M975,426L1040,470L1056,368Z" fill="#2f84cb" stroke="#2f84cb"/><path d="M1056,368L1040,470L1107,389Z" fill="#2c83ca" stroke="#2c83ca"/><path d="M1107,389L1040,470L1155,468Z" fill="#2278c5" stroke="#2278c5"/><path d="M1107,389L1155,468L1232,425Z" fill="#2676c3" stroke="#2676c3"/><path d="M1232,425L1155,468L1205,529Z" fill="#1a68bc" stroke="#1a68bc"/><path d="M1232,425L1205,529L1317,463Z" fill="#1a63b9" stroke="#1a63b9"/><path d="M1232,425L1317,463L1335,428Z" fill="#2366bb" stroke="#2366bb"/><path d="M1335,428L1317,463L1286,624Z" fill="#1156b2" stroke="#1156b2"/><path d="M1335,428L1286,624L1297,772Z" fill="#0040a7" stroke="#0040a7"/><path d="M-10,510L-32,579L51,565Z" fill="#7cb1e5" stroke="#7cb1e5"/><path d="M-10,510L51,565L12,482Z" fill="#84b7e9" stroke="#84b7e9"/><path d="M12,482L51,565L112,490Z" fill="#82b7e8" stroke="#82b7e8"/><path d="M112,490L51,565L187,570Z" fill="#76aee2" stroke="#76aee2"/><path d="M112,490L187,570L237,505Z" fill="#76b0e2" stroke="#76b0e2"/><path d="M237,505L187,570L309,590Z" fill="#68a5db" stroke="#68a5db"/><path d="M237,505L309,590L322,489Z" fill="#6ca9dd" stroke="#6ca9dd"/><path d="M322,489L309,590L372,613Z" fill="#5e9fd7" stroke="#5e9fd7"/><path d="M322,489L372,613L441,480Z" fill="#61a4db" stroke="#61a4db"/><path d="M441,480L372,613L532,601Z" fill="#4e97d4" stroke="#4e97d4"/><path d="M441,480L532,601L516,463Z" fill="#559fd9" stroke="#559fd9"/><path d="M516,463L532,601L569,549Z" fill="#4a98d5" stroke="#4a98d5"/><path d="M516,463L569,549L582,516Z" fill="#4f9cd8" stroke="#4f9cd8"/><path d="M582,516L569,549L701,625Z" fill="#398dd0" stroke="#398dd0"/><path d="M582,516L701,625L711,458Z" fill="#3b8fd1" stroke="#3b8fd1"/><path d="M711,458L701,625L738,467Z" fill="#398ed0" stroke="#398ed0"/><path d="M738,467L701,625L792,613Z" fill="#287fc9" stroke="#287fc9"/><path d="M738,467L792,613L846,525Z" fill="#2b82ca" stroke="#2b82ca"/><path d="M846,525L792,613L894,617Z" fill="#1c72c1" stroke="#1c72c1"/><path d="M846,525L894,617L965,554Z" fill="#1671c1" stroke="#1671c1"/><path d="M846,525L965,554L965,509Z" fill="#1d76c4" stroke="#1d76c4"/><path d="M965,509L965,554L1040,470Z" fill="#1b74c2" stroke="#1b74c2"/><path d="M1040,470L965,554L1071,591Z" fill="#0f6bbd" stroke="#0f6bbd"/><path d="M1040,470L1071,591L1112,574Z" fill="#0865ba" stroke="#0865ba"/><path d="M1040,470L1112,574L1155,468Z" fill="#126bbd" stroke="#126bbd"/><path d="M1155,468L1112,574L1205,529Z" fill="#0c61b8" stroke="#0c61b8"/><path d="M1205,529L1112,574L1177,586Z" fill="#0258b3" stroke="#0258b3"/><path d="M1205,529L1177,586L1286,624Z" fill="#004eae" stroke="#004eae"/><path d="M1205,529L1286,624L1317,463Z" fill="#0853b0" stroke="#0853b0"/><path d="M-32,579L-36,726L-28,637Z" fill="#7a9eda" stroke="#7a9eda"/><path d="M-32,579L-28,637L51,565Z" fill="#78a8e0" stroke="#78a8e0"/><path d="M51,565L-28,637L46,664Z" fill="#76a1dc" stroke="#76a1dc"/><path d="M51,565L46,664L158,625Z" fill="#719fda" stroke="#719fda"/><path d="M51,565L158,625L187,570Z" fill="#6da3dc" stroke="#6da3dc"/><path d="M158,625L46,664L166,674Z" fill="#6e95d5" stroke="#6e95d5"/><path d="M158,625L166,674L241,670Z" fill="#6992d2" stroke="#6992d2"/><path d="M158,625L241,670L187,570Z" fill="#6899d5" stroke="#6899d5"/><path d="M187,570L241,670L309,590Z" fill="#6499d5" stroke="#6499d5"/><path d="M309,590L241,670L316,713Z" fill="#618dce" stroke="#618dce"/><path d="M309,590L316,713L372,613Z" fill="#5c8fce" stroke="#5c8fce"/><path d="M372,613L316,713L397,649Z" fill="#5889cb" stroke="#5889cb"/><path d="M372,613L397,649L532,601Z" fill="#4f8cce" stroke="#4f8cce"/><path d="M532,601L397,649L481,709Z" fill="#4a83c9" stroke="#4a83c9"/><path d="M532,601L481,709L559,686Z" fill="#437dc6" stroke="#437dc6"/><path d="M532,601L559,686L701,625Z" fill="#3a7ec8" stroke="#3a7ec8"/><path d="M532,601L701,625L569,549Z" fill="#3988cc" stroke="#3988cc"/><path d="M701,625L559,686L635,712Z" fill="#3573c2" stroke="#3573c2"/><path d="M701,625L635,712L697,750Z" fill="#306abd" stroke="#306abd"/><path d="M701,625L697,750L770,678Z" fill="#2b68bc" stroke="#2b68bc"/><path d="M701,625L770,678L792,613Z" fill="#276fc0" stroke="#276fc0"/><path d="M792,613L770,678L850,673Z" fill="#2167bb" stroke="#2167bb"/><path d="M792,613L850,673L894,617Z" fill="#1c68bb" stroke="#1c68bb"/><path d="M894,617L850,673L947,637Z" fill="#1661b8" stroke="#1661b8"/><path d="M894,617L947,637L965,554Z" fill="#1165bb" stroke="#1165bb"/><path d="M965,554L947,637L1071,591Z" fill="#0a62b8" stroke="#0a62b8"/><path d="M1071,591L947,637L1024,674Z" fill="#0857b2" stroke="#0857b2"/><path d="M1071,591L1024,674L1112,705Z" fill="#024dad" stroke="#024dad"/><path d="M1071,591L1112,705L1112,574Z" fill="#0051af" stroke="#0051af"/><path d="M1112,574L1112,705L1177,586Z" fill="#004eae" stroke="#004eae"/><path d="M1177,586L1112,705L1184,711Z" fill="#0042a7" stroke="#0042a7"/><path d="M1177,586L1184,711L1280,655Z" fill="#0040a6" stroke="#0040a6"/><path d="M1177,586L1280,655L1286,624Z" fill="#0043a8" stroke="#0043a8"/><path d="M1286,624L1280,655L1297,772Z" fill="#00329f" stroke="#00329f"/><path d="M-28,637L-36,726L46,664Z" fill="#7897d7" stroke="#7897d7"/><path d="M46,664L-36,726L30,789Z" fill="#778bd0" stroke="#778bd0"/><path d="M46,664L30,789L126,742Z" fill="#7287cd" stroke="#7287cd"/><path d="M46,664L126,742L166,674Z" fill="#6f8dd0" stroke="#6f8dd0"/><path d="M166,674L126,742L223,742Z" fill="#6a85cb" stroke="#6a85cb"/><path d="M166,674L223,742L241,670Z" fill="#6788cc" stroke="#6788cc"/><path d="M241,670L223,742L316,713Z" fill="#6383c9" stroke="#6383c9"/><path d="M316,713L223,742L353,793Z" fill="#6079c2" stroke="#6079c2"/><path d="M316,713L353,793L397,649Z" fill="#597cc4" stroke="#597cc4"/><path d="M397,649L353,793L420,799Z" fill="#5574c0" stroke="#5574c0"/><path d="M397,649L420,799L481,709Z" fill="#4f77c2" stroke="#4f77c2"/><path d="M481,709L420,799L513,756Z" fill="#4a6cbd" stroke="#4a6cbd"/><path d="M481,709L513,756L559,686Z" fill="#4472c0" stroke="#4472c0"/><path d="M559,686L513,756L570,728Z" fill="#406ebe" stroke="#406ebe"/><path d="M559,686L570,728L635,712Z" fill="#3b6fbf" stroke="#3b6fbf"/><path d="M635,712L570,728L697,750Z" fill="#3567bb" stroke="#3567bb"/><path d="M770,678L697,750L738,759Z" fill="#295db6" stroke="#295db6"/><path d="M770,678L738,759L859,764Z" fill="#2357b3" stroke="#2357b3"/><path d="M770,678L859,764L850,673Z" fill="#1e5ab4" stroke="#1e5ab4"/><path d="M850,673L859,764L963,734Z" fill="#1750ae" stroke="#1750ae"/><path d="M850,673L963,734L947,637Z" fill="#1356b2" stroke="#1356b2"/><path d="M947,637L963,734L1024,674Z" fill="#0c50af" stroke="#0c50af"/><path d="M1024,674L963,734L1018,769Z" fill="#0a44a9" stroke="#0a44a9"/><path d="M1024,674L1018,769L1112,705Z" fill="#0442a7" stroke="#0442a7"/><path d="M1112,705L1018,769L1131,778Z" fill="#0037a1" stroke="#0037a1"/><path d="M1112,705L1131,778L1184,711Z" fill="#0035a0" stroke="#0035a0"/><path d="M1184,711L1131,778L1213,799Z" fill="#002b9b" stroke="#002b9b"/><path d="M1184,711L1213,799L1297,772Z" fill="#002798" stroke="#002798"/><path d="M1184,711L1297,772L1280,655Z" fill="#002e9d" stroke="#002e9d"/><path d="M30,789L420,799L353,793Z" fill="#6270bf" stroke="#6270bf"/><path d="M30,789L353,793L223,742Z" fill="#6877c3" stroke="#6877c3"/><path d="M30,789L223,742L126,742Z" fill="#6e7fc8" stroke="#6e7fc8"/><path d="M420,799L1213,799L859,764Z" fill="#1e47aa" stroke="#1e47aa"/><path d="M420,799L859,764L738,759Z" fill="#305ab4" stroke="#305ab4"/><path d="M420,799L738,759L697,750Z" fill="#3760b7" stroke="#3760b7"/><path d="M420,799L697,750L513,756Z" fill="#4165ba" stroke="#4165ba"/><path d="M513,756L697,750L570,728Z" fill="#3a67bb" stroke="#3a67bb"/><path d="M859,764L1213,799L1018,769Z" fill="#0636a1" stroke="#0636a1"/><path d="M859,764L1018,769L963,734Z" fill="#1043a8" stroke="#1043a8"/><path d="M1018,769L1213,799L1131,778Z" fill="#002c9b" stroke="#002c9b"/></g><filter id="noise"><feTurbulence type="fractalNoise" in="fillPaint" fill="#F00" baseFrequency="0.7" numOctaves="3" stitchTiles="stitch"/><feComponentTransfer><feFuncR type="linear" slope="2" intercept="-.5"/><feFuncG type="linear" slope="2" intercept="-.5"/><feFuncB type="linear" slope="2" intercept="-.5"/></feComponentTransfer><feColorMatrix type="matrix" values="0.3333 0.3333 0.3333 0 0 
 0.3333 0.3333 0.3333 0 0 
 0.3333 0.3333 0.3333 0 0 
 0 0 0 1 0"/></filter><rect opacity="0.20000000000000007" width="100%" height="100%" filter="url(#noise)"/></svg>